<svg xmlns="http://www.w3.org/2000/svg" version="1.1" xmlns:xlink="http://www.w3.org/1999/xlink" xmlns:svgjs="http://svgjs.dev/svgjs" width="1000" height="625" viewBox="0 0 1000 625"><g transform="matrix(1,0,0,1,0,0)"><svg viewBox="0 0 512 320" data-background-color="#ffffff" preserveAspectRatio="xMidYMid meet" height="625" width="1000" xmlns="http://www.w3.org/2000/svg" xmlns:xlink="http://www.w3.org/1999/xlink"><g id="tight-bounds" transform="matrix(1,0,0,1,0,0)"><svg viewBox="0 0 512 320" height="320" width="512"><g><svg></svg></g><g><svg viewBox="0 0 512 320" height="320" width="512"><g><path xmlns="http://www.w3.org/2000/svg" d="M96 160c0-88.366 71.634-160 160-160 88.366 0 160 71.634 160 160 0 88.366-71.634 160-160 160-88.366 0-160-71.634-160-160z" fill="#8dbdff" fill-rule="nonzero" stroke="none" stroke-width="1" stroke-linecap="butt" stroke-linejoin="miter" stroke-miterlimit="10" stroke-dasharray="" stroke-dashoffset="0" font-family="none" font-weight="none" font-size="none" text-anchor="none" style="mix-blend-mode: normal" data-fill-palette-color="tertiary"></path></g><g transform="matrix(1,0,0,1,153.6,113.68774626283637)"><svg viewBox="0 0 204.8 92.62450747432726" height="92.62450747432726" width="204.8"><g><svg viewBox="0 0 204.8 92.62450747432726" height="92.62450747432726" width="204.8"><g><svg viewBox="0 0 204.8 92.62450747432726" height="92.62450747432726" width="204.8"><g><svg viewBox="0 0 204.8 92.62450747432726" height="92.62450747432726" width="204.8"><g><svg viewBox="0 0 204.8 62.92242328874902" height="62.92242328874902" width="204.8"><g transform="matrix(1,0,0,1,0,0)"><svg width="204.8" viewBox="1.2999999523162842 -38.349998474121094 127.08999633789062 39.04999923706055" height="62.92242328874902" data-palette-color="#ffffff"><path d="M11.65-6.4L11.65-6.4Q12.8-6.4 13.7-6.9L13.7-6.9 13.45-1.25Q11.1 0.7 8.1 0.7L8.1 0.7Q3.55 0.7 2.2-1.4L2.2-1.4Q1.3-2.8 1.3-4.38 1.3-5.95 1.5-7.15L1.5-7.15 4.5-24.05 13-24.05 10.2-8.3Q10.15-8 10.15-7.75L10.15-7.75Q10.15-6.4 11.65-6.4ZM5.5-32.2L5.5-32.2Q5.5-35.4 6.93-36.88 8.35-38.35 11.35-38.35L11.35-38.35Q15.55-38.35 15.55-34.65L15.55-34.65Q15.55-31.5 14.13-30.05 12.7-28.6 9.65-28.6L9.65-28.6Q5.5-28.6 5.5-32.2ZM27.45 0.7L27.45 0.7Q21.65 0.7 19.1-1.9L19.1-1.9Q17.2-3.8 17.2-7L17.2-7Q17.2-8.05 17.4-9.25L17.4-9.25 20.8-28.6 29.95-32.4 28.5-24.05 42.3-24.05 41.05-17 27.25-17 26.25-11.35Q26.05-10.4 26.05-9.65L26.05-9.65Q26.05-6.5 29.05-6.5L29.05-6.5Q30.65-6.5 31.72-7.85 32.8-9.2 33.2-11.45L33.2-11.45 41.5-11.45Q39.4 0.7 27.45 0.7ZM68.15-6.4L68.15-6.4Q69.3-6.4 70.2-6.9L70.2-6.9 69.95-1.25Q67.59 0.7 64.2 0.7 60.8 0.7 59.17-1.1 57.55-2.9 56.65-7.15L56.65-7.15 56.5-7.85Q55.45-7.7 53.35-7.6L53.35-7.6 52 0 43.5 0 50.2-37.95 58.7-37.95 55.8-21.5Q58.75-24.75 63.8-24.75L63.8-24.75Q67.2-24.75 68.82-23.08 70.45-21.4 70.45-18.6L70.45-18.6Q70.45-13.2 64.8-10.15L64.8-10.15 65.34-8.3Q65.9-6.4 68.15-6.4ZM59.5-17.95L59.5-17.95Q56.8-17.95 54.7-15.4L54.7-15.4 54.15-12.1Q61.55-12.4 61.55-16.05L61.55-16.05Q61.55-16.9 61.02-17.43 60.5-17.95 59.5-17.95ZM98.99-18.85L98.99-18.85Q98.99-17.2 97.99-15.8L97.99-15.8 89.79-15.8Q90.19-16.1 90.19-16.8 90.19-17.5 89.39-17.93 88.59-18.35 87.34-18.35L87.34-18.35Q83.59-18.35 83.59-16.05L83.59-16.05Q83.59-15.15 84.99-14.75 86.39-14.35 88.39-14.1 90.39-13.85 92.39-13.38 94.39-12.9 95.79-11.5 97.19-10.1 97.19-7.75L97.19-7.75Q97.19-3.6 93.87-1.45 90.54 0.7 84.19 0.7 77.84 0.7 75.29-1.35L75.29-1.35Q73.29-2.95 73.29-5.75L73.29-5.75Q73.29-6.55 73.44-7.4L73.44-7.4 81.79-7.5Q81.69-6.8 82.62-6.28 83.54-5.75 85.34-5.75 87.14-5.75 87.94-6.13 88.74-6.5 88.74-7.55L88.74-7.55Q88.74-8.25 87.34-8.53 85.94-8.8 83.92-9 81.89-9.2 79.87-9.65 77.84-10.1 76.44-11.55 75.04-13 75.04-15.35L75.04-15.35Q75.04-19.9 78.57-22.35 82.09-24.8 88.74-24.8L88.74-24.8Q98.99-24.8 98.99-18.85ZM117.54-15.35L117.54-15.35Q117.54-17.5 115.47-17.5 113.39-17.5 112.04-15.95L112.04-15.95 109.24 0 100.74 0 104.99-24.05 112.89-24.05 112.34-21.1Q115.29-24.75 119.79-24.75 124.29-24.75 125.64-22.55L125.64-22.55Q126.49-21.15 126.49-19.35 126.49-17.55 126.24-16L126.24-16 124.89-8.3Q124.84-8 124.84-7.75L124.84-7.75Q124.84-6.4 126.34-6.4L126.34-6.4Q127.49-6.4 128.39-6.9L128.39-6.9 128.14-1.25Q125.79 0.7 122.79 0.7L122.79 0.7Q115.99 0.7 115.99-5L115.99-5Q115.99-6 116.19-7.15L116.19-7.15 117.39-13.8Q117.54-14.7 117.54-15.35Z" opacity="1" transform="matrix(1,0,0,1,0,0)" fill="#ffffff" class="undefined-text-0" data-fill-palette-color="quaternary" id="text-0"></path></svg></g></svg></g><g transform="matrix(1,0,0,1,0,77.77689728906374)"><svg viewBox="0 0 204.8 14.847610185263516" height="14.847610185263516" width="204.8"><g transform="matrix(1,0,0,1,0,0)"><svg width="204.8" viewBox="5.550000190734863 -33.25 590.989990234375 42.849998474121094" height="14.847610185263516" data-palette-color="#ffffff"><path d="M19.5 0L5.55 0 5.55-2.5 11.2-2.5 11.2-30.25 5.55-30.25 5.55-32.75 19.5-32.75 19.5-30.25 13.95-30.25 13.95-2.5 19.5-2.5 19.5 0ZM36.05-30.2L27.4-30.2 27.4-32.75 47.5-32.75 47.5-30.2 38.8-30.2 38.8 0 36.05 0 36.05-30.2ZM67.95-23.75L67.95-23.75 70.95-23.75Q67.45-18.1 62.9-12.65L62.9-12.65Q66-8.25 71.25 0L71.25 0 68.25 0Q64.25-6.5 61-11.05L61-11.05 57.5-10.6 57.5 0 54.85 0 54.85-33.2 57.5-33.2 57.5-13 60.75-13.5Q64.3-18.1 67.95-23.75ZM111.32-15.73Q106.84-16.8 104.77-18.88 102.69-20.95 102.69-24.9 102.69-28.85 105.42-31.05 108.14-33.25 112.44-33.25 116.74-33.25 121.19-31.7L121.19-31.7 120.49-29.15Q116.34-30.65 112.87-30.65 109.39-30.65 107.54-29.18 105.69-27.7 105.69-24.9 105.69-22.1 107.19-20.65 108.69-19.2 113.17-18.03 117.64-16.85 119.64-14.93 121.64-13 121.64-8.72 121.64-4.45 118.77-1.98 115.89 0.5 111.34 0.5L111.34 0.5Q107.94 0.5 102.74-0.95L102.74-0.95 103.39-3.5Q108.49-2.1 111.59-2.1 114.69-2.1 116.69-3.83 118.69-5.55 118.69-8.65 118.69-11.75 117.24-13.2 115.79-14.65 111.32-15.73ZM128.34-11.85Q128.34-17.6 130.71-20.83 133.09-24.05 137.64-24.05 142.19-24.05 144.41-21.05 146.64-18.05 146.64-13.05L146.64-13.05 146.49-10.55 131.19-10.55Q131.44-6.8 133.19-4.48 134.94-2.15 138.01-2.15 141.09-2.15 145.24-3.6L145.24-3.6 145.99-1.1Q141.94 0.45 138.39 0.45L138.39 0.45Q133.49 0.45 130.91-2.83 128.34-6.1 128.34-11.85ZM137.84-21.5L137.84-21.5Q131.54-21.5 131.19-13.05L131.19-13.05 143.79-13.05Q143.79-21.5 137.84-21.5ZM159.24-21.25L154.54-21.25 154.54-23.75 161.89-23.75 161.99-20.85Q163.59-21.85 166.49-22.85 169.39-23.85 171.59-24.05L171.59-24.05 171.59-21.1Q169.54-20.95 166.51-20.1 163.49-19.25 161.99-18.35L161.99-18.35 161.99-2.5 169.99-2.5 169.99 0 154.54 0 154.54-2.5 159.24-2.5 159.24-21.25ZM186.93-21.25L181.13-21.25 181.13-23.75 189.58-23.75 189.58-2.5 195.38-2.5 195.38 0 180.73 0 180.73-2.5 186.93-2.5 186.93-21.25ZM188.03-28.55Q187.13-28.55 186.51-29.18 185.88-29.8 185.88-30.78 185.88-31.75 186.51-32.33 187.13-32.9 188.03-32.9 188.93-32.9 189.51-32.35 190.08-31.8 190.08-30.8 190.08-29.8 189.51-29.18 188.93-28.55 188.03-28.55ZM210.88-2.15L210.88-2.15Q212.73-2.15 214.91-3.33 217.08-4.5 218.08-5.5L218.08-5.5 218.08-11.45Q214.78-11.7 211.78-11.7 208.78-11.7 207.28-10.43 205.78-9.15 205.78-7L205.78-7Q205.78-2.15 210.88-2.15ZM210.83 0.45L210.83 0.45Q207.18 0.45 205.08-1.43 202.98-3.3 202.98-6.75 202.98-10.2 205.28-12.1L205.28-12.1Q207.58-14.05 211.38-14.05 215.18-14.05 218.08-13.75L218.08-13.75Q218.08-18.2 216.98-19.83 215.88-21.45 212.53-21.45 209.18-21.45 204.63-19.85L204.63-19.85 203.88-22.35Q208.53-24.05 212.28-24.05L212.28-24.05Q217.23-24.05 218.98-21.85 220.73-19.65 220.73-14.15L220.73-14.15 220.73-3.65 221.13 0.15 218.58 0.4 218.08-2.6Q216.93-1.6 214.83-0.58 212.73 0.45 210.83 0.45ZM236.38-30.75L230.43-30.7 230.38-33.15 239.03-33.2 239.03-2.5 245.13-2.5 245.13 0 230.23 0 230.23-2.5 236.38-2.5 236.38-30.75ZM297.42 0L294.67 0 294.67-5.15 280.42-27.55 280.27-27.55 280.27 0 277.52 0 277.52-32.75 280.22-32.75 294.52-10.1 294.67-10.1 294.67-32.75 297.42-32.75 297.42 0ZM321.22 0L318.67 0 318.57-2.05Q313.77 0.45 310.57 0.45 307.37 0.45 305.52-1.75 303.67-3.95 303.67-7.75L303.67-7.75 303.67-23.75 306.32-23.75 306.32-7.75Q306.32-5.3 307.5-3.73 308.67-2.15 311.07-2.15 313.47-2.15 318.57-4.65L318.57-4.65 318.57-23.75 321.22-23.75 321.22 0ZM326.72-23.75L329.22-23.75 329.37-22.25Q331.87-24.05 333.22-24.05L333.22-24.05Q336.52-24.05 337.77-21.9L337.77-21.9Q340.57-24.05 342.67-24.05L342.67-24.05Q345.92-24.05 347.12-22.05 348.32-20.05 348.32-15.9L348.32-15.9 348.32 0 345.67 0 345.67-15.9Q345.67-18.75 345.07-20.13 344.47-21.5 342.77-21.5 341.07-21.5 338.57-19.9L338.57-19.9Q338.87-18.2 338.87-15.9L338.87-15.9 338.87-7.6 336.22-7.6 336.22-15.9Q336.22-18.75 335.62-20.1L335.62-20.1Q334.97-21.5 333.27-21.5 331.57-21.5 329.37-19.9L329.37-19.9 329.37 0 326.72 0 326.72-23.75ZM356.32 0L353.82 0 353.82-33.2 356.47-33.2 356.47-21.45Q360.22-24.05 363.27-24.05L363.27-24.05Q367.77-24.05 370.22-20.98 372.67-17.9 372.67-12.2 372.67-6.5 369.92-3.03 367.17 0.45 362.42 0.45L362.42 0.45Q359.52 0.45 356.42-1L356.42-1 356.32 0ZM369.82-12.15Q369.82-16.55 368.09-19 366.37-21.45 363.12-21.45 359.87-21.45 356.47-18.6L356.47-18.6 356.47-3.6Q357.52-3.1 359.34-2.63 361.17-2.15 362.32-2.15L362.32-2.15Q365.82-2.15 367.82-4.95 369.82-7.75 369.82-12.15ZM378.31-11.85Q378.31-17.6 380.69-20.83 383.06-24.05 387.61-24.05 392.16-24.05 394.39-21.05 396.61-18.05 396.61-13.05L396.61-13.05 396.46-10.55 381.16-10.55Q381.41-6.8 383.16-4.48 384.91-2.15 387.99-2.15 391.06-2.15 395.21-3.6L395.21-3.6 395.96-1.1Q391.91 0.45 388.36 0.45L388.36 0.45Q383.46 0.45 380.89-2.83 378.31-6.1 378.31-11.85ZM387.81-21.5L387.81-21.5Q381.51-21.5 381.16-13.05L381.16-13.05 393.76-13.05Q393.76-21.5 387.81-21.5ZM409.21-21.25L404.51-21.25 404.51-23.75 411.86-23.75 411.96-20.85Q413.56-21.85 416.46-22.85 419.36-23.85 421.56-24.05L421.56-24.05 421.56-21.1Q419.51-20.95 416.49-20.1 413.46-19.25 411.96-18.35L411.96-18.35 411.96-2.5 419.96-2.5 419.96 0 404.51 0 404.51-2.5 409.21-2.5 409.21-21.25ZM456.46 9.6L453.81 9.6 453.81-19.45 453.36-23.8 455.86-24.1 456.31-21.4Q459.96-24.05 463.26-24.05L463.26-24.05Q467.71-24.05 470.16-20.8 472.61-17.55 472.61-11.85 472.61-6.15 469.91-2.85 467.21 0.45 462.41 0.45L462.41 0.45Q459.61 0.45 456.46-0.9L456.46-0.9 456.46 9.6ZM469.76-11.78Q469.76-16.2 468.06-18.82 466.36-21.45 463.18-21.45 460.01-21.45 456.46-18.6L456.46-18.6 456.46-3.6Q457.51-3.1 459.33-2.63 461.16-2.15 462.31-2.15L462.31-2.15Q465.86-2.15 467.81-4.75 469.76-7.35 469.76-11.78ZM485.85-2.15L485.85-2.15Q487.7-2.15 489.88-3.33 492.05-4.5 493.05-5.5L493.05-5.5 493.05-11.45Q489.75-11.7 486.75-11.7 483.75-11.7 482.25-10.43 480.75-9.15 480.75-7L480.75-7Q480.75-2.15 485.85-2.15ZM485.8 0.45L485.8 0.45Q482.15 0.45 480.05-1.43 477.95-3.3 477.95-6.75 477.95-10.2 480.25-12.1L480.25-12.1Q482.55-14.05 486.35-14.05 490.15-14.05 493.05-13.75L493.05-13.75Q493.05-18.2 491.95-19.83 490.85-21.45 487.5-21.45 484.15-21.45 479.6-19.85L479.6-19.85 478.85-22.35Q483.5-24.05 487.25-24.05L487.25-24.05Q492.2-24.05 493.95-21.85 495.7-19.65 495.7-14.15L495.7-14.15 495.7-3.65 496.1 0.15 493.55 0.4 493.05-2.6Q491.9-1.6 489.8-0.58 487.7 0.45 485.8 0.45ZM509.2-21.25L504.5-21.25 504.5-23.75 511.85-23.75 511.95-20.85Q513.55-21.85 516.45-22.85 519.35-23.85 521.55-24.05L521.55-24.05 521.55-21.1Q519.5-20.95 516.48-20.1 513.45-19.25 511.95-18.35L511.95-18.35 511.95-2.5 519.95-2.5 519.95 0 504.5 0 504.5-2.5 509.2-2.5 509.2-21.25ZM528.85-1.15L528.85-1.15 529.5-3.75Q534.45-2.1 537.15-2.1 539.85-2.1 541.32-3.28 542.8-4.45 542.8-6.4 542.8-8.35 541.62-9.28 540.45-10.2 536.75-11.05 533.05-11.9 531.2-13.5L531.2-13.5Q529.35-15 529.35-18 529.35-21 531.62-22.58 533.9-24.15 537.5-24.15 541.1-24.15 545.3-22.55L545.3-22.55 544.6-20.2Q540.35-21.6 537.75-21.6 535.15-21.6 533.65-20.7L533.65-20.7Q532.15-19.7 532.15-18 532.15-16.3 533.47-15.35 534.8-14.4 538.6-13.45 542.4-12.5 544-11.03 545.6-9.55 545.6-6.4 545.6-3.25 543.45-1.4L543.45-1.4Q541.35 0.45 537.45 0.45 533.55 0.45 528.85-1.15ZM553.29-11.85Q553.29-17.6 555.67-20.83 558.04-24.05 562.59-24.05 567.14-24.05 569.37-21.05 571.59-18.05 571.59-13.05L571.59-13.05 571.44-10.55 556.14-10.55Q556.39-6.8 558.14-4.48 559.89-2.15 562.97-2.15 566.04-2.15 570.19-3.6L570.19-3.6 570.94-1.1Q566.89 0.45 563.34 0.45L563.34 0.45Q558.44 0.45 555.87-2.83 553.29-6.1 553.29-11.85ZM562.79-21.5L562.79-21.5Q556.49-21.5 556.14-13.05L556.14-13.05 568.74-13.05Q568.74-21.5 562.79-21.5ZM584.19-21.25L579.49-21.25 579.49-23.75 586.84-23.75 586.94-20.85Q588.54-21.85 591.44-22.85 594.34-23.85 596.54-24.05L596.54-24.05 596.54-21.1Q594.49-20.95 591.47-20.1 588.44-19.25 586.94-18.35L586.94-18.35 586.94-2.5 594.94-2.5 594.94 0 579.49 0 579.49-2.5 584.19-2.5 584.19-21.25Z" opacity="1" transform="matrix(1,0,0,1,0,0)" fill="#ffffff" class="undefined-text-1" data-fill-palette-color="quaternary" id="text-1"></path></svg></g></svg></g></svg></g></svg></g><g></g></svg></g></svg></g></svg></g><defs></defs></svg><rect width="512" height="320" fill="none" stroke="none" visibility="hidden"></rect></g></svg></g></svg>
